PathFileType	3	(X/Y/Z)	feet_movements_1__view1_aligned.trc
DataRate	CameraRate	NumFrames	NumMarkers	Units	OrigDataRate	OrigDataStartFrame	OrigNumFrames
100.0	100.0	16	19	mm	100.0	1321	1840
Frame#	Time	pelvis			neck			head			hip_left			hip_right			knee_left			knee_right			ankle_left			ankle_right			heel_left			heel_right			toe_left			toe_right			shoulder_left			shoulder_right			elbow_left			elbow_right			wrist_left			wrist_right			
		X1	Y1	Z1	X2	Y2	Z2	X3	Y3	Z3	X4	Y4	Z4	X5	Y5	Z5	X6	Y6	Z6	X7	Y7	Z7	X8	Y8	Z8	X9	Y9	Z9	X10	Y10	Z10	X11	Y11	Z11	X12	Y12	Z12	X13	Y13	Z13	X14	Y14	Z14	X15	Y15	Z15	X16	Y16	Z16	X17	Y17	Z17	X18	Y18	Z18	X19	Y19	Z19	
1321	13.20000	167.274269	936.890881	396.534449	213.353287	1480.176490	486.732775	248.180442	1612.067054	377.776915	100.911084	949.417422	366.342561	233.637453	924.364339	426.726337	103.595439	696.309274	22.205545	248.962543	518.923885	294.494402	-26.890919	387.305044	-187.942687	134.624103	158.935767	414.853932	-56.850917	343.957867	-170.440542	111.522059	118.463465	454.370165	25.023208	317.772643	-375.205557	182.987725	79.172889	243.680362	26.029401	1422.075046	454.020468	379.289242	1424.111323	573.658527	-124.866891	1190.217033	350.246986	463.772030	1153.432570	511.691394	-208.980842	1039.187279	144.039509	563.816288	1091.912706	275.437931
1322	13.21000	166.885623	937.068891	397.072519	212.705739	1480.193837	487.723605	247.434313	1612.040298	378.796872	100.535938	949.597610	366.876449	233.235270	924.540173	427.268622	103.662721	696.621938	22.564239	248.216770	518.908446	295.232949	-26.933933	387.304397	-187.216210	133.873624	158.902874	415.787139	-56.952129	344.022374	-169.625824	110.783899	118.445525	455.337164	25.110273	317.094111	-374.263130	182.156730	78.998014	244.647370	25.400604	1422.073063	454.771309	378.679077	1424.129717	574.654144	-125.258674	1190.241746	350.560709	463.026368	1153.457127	512.361445	-208.781570	1039.325171	144.140000	563.232991	1092.281290	276.171237
1323	13.22000	166.496978	937.246901	397.610590	212.058192	1480.211185	488.714435	246.688183	1612.013543	379.816830	100.160792	949.777799	367.410337	232.833088	924.716007	427.810907	103.730003	696.934602	22.922934	247.470998	518.893006	295.971496	-26.976947	387.303750	-186.489734	133.123146	158.869981	416.720346	-57.053342	344.086880	-168.811107	110.045739	118.427585	456.304163	25.197338	316.415578	-373.320703	181.325734	78.823139	245.614377	24.771808	1422.071079	455.522149	378.068912	1424.148110	575.649761	-125.650457	1190.266459	350.874432	462.280707	1153.481684	513.031495	-208.582297	1039.463063	144.240490	562.649693	1092.649873	276.904544
1324	13.23000	166.108332	937.424912	398.148660	211.410644	1480.228532	489.705264	245.942054	1611.986788	380.836788	99.785645	949.957987	367.944225	232.430905	924.891841	428.353192	103.797285	697.247267	23.281628	246.725226	518.877566	296.710043	-27.019960	387.303103	-185.763257	132.372668	158.837087	417.653553	-57.154554	344.151387	-167.996390	109.307578	118.409644	457.271161	25.284403	315.737045	-372.378275	180.494739	78.648264	246.581385	24.143012	1422.069095	456.272989	377.458748	1424.166503	576.645378	-126.042240	1190.291172	351.188155	461.535045	1153.506242	513.701546	-208.383025	1039.600956	144.340981	562.066395	1093.018457	277.637851
1325	13.24000	165.719687	937.602922	398.686731	210.763097	1480.245880	490.696094	245.195924	1611.960032	381.856746	99.410499	950.138176	368.478113	232.028722	925.067675	428.895477	103.864567	697.559931	23.640323	245.979454	518.862127	297.448591	-27.062974	387.302456	-185.036780	131.622189	158.804194	418.586760	-57.255766	344.215894	-167.181673	108.569418	118.391704	458.238160	25.371467	315.058512	-371.435848	179.663744	78.473389	247.548392	23.514216	1422.067112	457.023830	376.848583	1424.184897	577.640994	-126.434023	1190.315885	351.501878	460.789383	1153.530799	514.371597	-208.183753	1039.738848	144.441471	561.483097	1093.387041	278.371157
1326	13.25000	165.331041	937.780933	399.224801	210.115549	1480.263228	491.686924	244.449795	1611.933277	382.876704	99.035353	950.318364	369.012001	231.626540	925.243508	429.437762	103.931849	697.872595	23.999018	245.233682	518.846687	298.187138	-27.105987	387.301808	-184.310304	130.871711	158.771301	419.519967	-57.356979	344.280401	-166.366956	107.831258	118.373764	459.205159	25.458532	314.379979	-370.493421	178.832749	78.298514	248.515400	22.885419	1422.065128	457.774670	376.238419	1424.203290	578.636611	-126.825806	1190.340598	351.815601	460.043722	1153.555356	515.041647	-207.984480	1039.876740	144.541962	560.899799	1093.755624	279.104464
1327	13.26000	164.942396	937.958943	399.762872	209.468001	1480.280575	492.677754	243.703666	1611.906521	383.896662	98.660206	950.498553	369.545889	231.224357	925.419342	429.980048	103.999131	698.185260	24.357712	244.487909	518.831248	298.925685	-27.149001	387.301161	-183.583827	130.121232	158.738407	420.453174	-57.458191	344.344908	-165.552238	107.093097	118.355824	460.172158	25.545597	313.701447	-369.550994	178.001754	78.123639	249.482407	22.256623	1422.063144	458.525510	375.628254	1424.221684	579.632228	-127.217589	1190.365312	352.129324	459.298060	1153.579914	515.711698	-207.785208	1040.014632	144.642452	560.316501	1094.124208	279.837771
1328	13.27000	164.553750	938.136953	400.300942	208.820454	1480.297923	493.668584	242.957536	1611.879766	384.916619	98.285060	950.678741	370.079777	230.822174	925.595176	430.522333	104.066413	698.497924	24.716407	243.742137	518.815808	299.664233	-27.192015	387.300514	-182.857350	129.370754	158.705514	421.386381	-57.559403	344.409414	-164.737521	106.354937	118.337883	461.139157	25.632662	313.022914	-368.608566	177.170759	77.948764	250.449415	21.627827	1422.061161	459.276351	375.018090	1424.240077	580.627844	-127.609372	1190.390025	352.443047	458.552399	1153.604471	516.381749	-207.585936	1040.152525	144.742943	559.733204	1094.492792	280.571077
1329	13.28000	164.165105	938.314964	400.839013	208.172906	1480.315270	494.659413	242.211407	1611.853010	385.936577	97.909914	950.858930	370.613665	230.419992	925.771010	431.064618	104.133694	698.810588	25.075102	242.996365	518.800369	300.402780	-27.235028	387.299867	-182.130874	128.620275	158.672621	422.319587	-57.660616	344.473921	-163.922804	105.616777	118.319943	462.106156	25.719727	312.344381	-367.666139	176.339764	77.773889	251.416422	20.999031	1422.059177	460.027191	374.407925	1424.258471	581.623461	-128.001155	1190.414738	352.756770	457.806737	1153.629028	517.051799	-207.386663	1040.290417	144.843433	559.149906	1094.861375	281.304384
1330	13.29000	163.776459	938.492974	401.377083	207.525359	1480.332618	495.650243	241.465278	1611.826255	386.956535	97.534768	951.039118	371.147553	230.017809	925.946844	431.606903	104.200976	699.123253	25.433796	242.250593	518.784929	301.141327	-27.278042	387.299220	-181.404397	127.869797	158.639727	423.252794	-57.761828	344.538428	-163.108087	104.878616	118.302003	463.073155	25.806792	311.665848	-366.723712	175.508769	77.599013	252.383429	20.370234	1422.057193	460.778031	373.797761	1424.276864	582.619078	-128.392938	1190.439451	353.070493	457.061075	1153.653586	517.721850	-207.187391	1040.428309	144.943924	558.566608	1095.229959	282.037691
1331	13.30000	163.387814	938.670984	401.915154	206.877811	1480.349966	496.641073	240.719148	1611.799500	387.976493	97.159621	951.219306	371.681440	229.615626	926.122677	432.149188	104.268258	699.435917	25.792491	241.504821	518.769489	301.879875	-27.321056	387.298573	-180.677920	127.119319	158.606834	424.186001	-57.863040	344.602935	-162.293370	104.140456	118.284063	464.040154	25.893857	310.987315	-365.781284	174.677774	77.424138	253.350437	19.741438	1422.055210	461.528871	373.187596	1424.295257	583.614695	-128.784721	1190.464164	353.384216	456.315414	1153.678143	518.391901	-206.988119	1040.566201	145.044414	557.983310	1095.598543	282.770997
1332	13.31000	163.213217	938.640169	402.165051	206.645530	1480.247702	496.958261	240.466766	1611.645733	388.303351	97.014597	951.204243	371.958823	229.411455	926.076109	432.371598	104.550715	699.624429	25.991415	241.394444	518.859090	301.815657	-26.905236	387.299372	-180.230450	127.255695	158.650275	424.119392	-57.467905	344.608469	-161.787998	104.312548	118.323544	463.984622	26.563421	310.706787	-365.349773	174.802614	77.430139	253.288231	19.516383	1421.928151	461.790501	372.988054	1424.266790	583.903783	-128.880801	1190.389832	353.430712	456.137509	1153.731267	518.529227	-206.828208	1040.617095	145.003859	557.838844	1095.875223	282.958713
1333	13.32000	163.038620	938.609353	402.414948	206.413248	1480.145439	497.275449	240.214384	1611.491967	388.630209	96.869573	951.189180	372.236205	229.207283	926.029541	432.594007	104.833172	699.812941	26.190339	241.284068	518.948691	301.751440	-26.489416	387.300172	-179.782979	127.392071	158.693717	424.052783	-57.072769	344.614004	-161.282626	104.484641	118.363025	463.929090	27.232986	310.426258	-364.918262	174.927454	77.436140	253.226025	19.291328	1421.801093	462.052130	372.788513	1424.238322	584.192871	-128.976881	1190.315500	353.477208	455.959605	1153.784392	518.666553	-206.668297	1040.667989	144.963304	557.694377	1096.151903	283.146429
1334	13.33000	162.864023	938.578537	402.664845	206.180967	1480.043175	497.592638	239.962003	1611.338201	388.957067	96.724549	951.174116	372.513588	229.003111	925.982973	432.816417	105.115629	700.001452	26.389263	241.173691	519.038292	301.687223	-26.073597	387.300971	-179.335508	127.528448	158.737158	423.986173	-56.677634	344.619539	-160.777254	104.656733	118.402506	463.873559	27.902550	310.145729	-364.486751	175.052295	77.442140	253.163818	19.066272	1421.674035	462.313759	372.588971	1424.209854	584.481959	-129.072961	1190.241168	353.523705	455.781700	1153.837516	518.803879	-206.508386	1040.718882	144.922749	557.549910	1096.428582	283.334145
1335	13.34000	162.689426	938.547722	402.914742	205.948686	1479.940911	497.909826	239.709621	1611.184435	389.283925	96.579524	951.159053	372.790970	228.798939	925.936405	433.038826	105.398085	700.189964	26.588187	241.063315	519.127893	301.623006	-25.657777	387.301771	-178.888037	127.664824	158.780599	423.919564	-56.282498	344.625074	-160.271882	104.828826	118.441986	463.818027	28.572114	309.865201	-364.055239	175.177135	77.448141	253.101612	18.841217	1421.546976	462.575388	372.389430	1424.181387	584.771047	-129.169040	1190.166836	353.570201	455.603796	1153.890640	518.941205	-206.348475	1040.769776	144.882193	557.405444	1096.705262	283.521860
1336	13.35000	162.514829	938.516906	403.164640	205.716404	1479.838648	498.227014	239.457239	1611.030669	389.610783	96.434500	951.143990	373.068353	228.594767	925.889838	433.261235	105.680542	700.378476	26.787110	240.952938	519.217493	301.558788	-25.241958	387.302570	-178.440566	127.801200	158.824041	423.852955	-55.887362	344.630609	-159.766510	105.000918	118.481467	463.762496	29.241678	309.584672	-363.623728	175.301976	77.454141	253.039406	18.616162	1421.419918	462.837017	372.189888	1424.152919	585.060135	-129.265120	1190.092504	353.616697	455.425891	1153.943764	519.078531	-206.188564	1040.820669	144.841638	557.260977	1096.981942	283.709576
